<svg width="183" height="215" viewBox="0 0 183 215" fill="none" xmlns="http://www.w3.org/2000/svg">
<g clip-path="url(#clip0_2_175)">
<path d="M181.27 33.7786C182.307 44.0053 183.211 54.2543 182.961 64.5642C180.926 124.129 152.793 178.76 101.374 209.723C99.5881 210.798 94.0314 214.351 92.5618 214.8C91.3584 215.166 91.0201 214.989 89.9277 214.612C87.5985 213.808 81.9697 209.928 79.5019 208.393C19.892 171.283 -7.1152 102.655 1.59697 33.7786C10.5698 33.1578 19.4872 33.3407 28.4045 32.027C46.9435 29.2833 66.6749 21.2903 81.16 9.37299C82.6241 8.16462 90.704 -0.16089 91.6357 -0.000144358C108.378 17.3659 130.061 28.3022 153.985 31.9494C163.163 33.3518 172.075 33.058 181.27 33.7786ZM91.2364 12.7486C69.8636 33.1467 39.7176 42.5309 10.4367 42.8801L9.33866 61.7871C10.5587 96.2865 19.7422 130.065 39.7453 158.329C53.2766 177.452 71.0004 192.701 91.2531 204.402C114.256 191.714 134.104 173.334 148.018 151.012C167.583 119.628 175.402 81.4036 172.946 44.5929C172.347 41.4002 165.792 42.8469 163.263 42.6307C136.772 40.3969 110.896 30.7522 91.242 12.7431L91.2364 12.7486Z" fill="#C48520"/>
<path d="M164.084 50.9564C137.648 50.3245 111.65 41.1232 91.2311 24.389C74.0674 39.294 51.9736 47.3978 29.536 50.3356C27.8224 50.5629 19.5428 50.7402 19.0326 51.4774C16.1045 100.327 33.8228 149.676 72.3205 180.65C75.8309 183.472 86.301 191.598 89.9334 192.989C91.0314 193.41 91.3642 193.549 92.562 193.183C93.66 192.85 99.2778 188.97 100.714 188C146.061 157.32 166.779 104.95 164.089 50.9619L164.084 50.9564ZM102.417 169.271L91.5028 162.536L80.589 169.271L83.6225 156.816L73.84 148.518L86.6337 147.553L91.5028 135.691L96.3718 147.553L109.166 148.518L99.3831 156.816L102.417 169.271ZM99.3831 112.971L102.417 125.426L91.5028 118.691L80.589 125.426L83.6225 112.971L73.84 104.673L86.6337 103.709L91.5028 91.8468L96.3718 103.709L109.166 104.673L99.3831 112.971ZM99.3831 69.8856L102.417 82.3406L91.5028 75.6059L80.589 82.3406L83.6225 69.8856L73.84 61.5878L86.6337 60.6233L91.5028 48.7614L96.3718 60.6233L109.166 61.5878L99.3831 69.8856Z" fill="#C48520"/>
</g>
<defs>
<clipPath id="clip0_2_175">
<rect width="183" height="215" fill="white"/>
</clipPath>
</defs>
</svg>
