<svg width="40" height="40" viewBox="0 0 40 40" fill="none" xmlns="http://www.w3.org/2000/svg">
<g clip-path="url(#clip0_2040_245)">
<path d="M34.1417 34.1421C41.9522 26.3316 41.9522 13.6684 34.1417 5.85786C26.3313 -1.95262 13.668 -1.95262 5.85747 5.85786C-1.95302 13.6684 -1.95302 26.3316 5.85747 34.1421C13.668 41.9526 26.3313 41.9526 34.1417 34.1421Z" fill="#FCDF26"/>
<path d="M23.4031 0.29248L0.322754 23.3738C0.655644 25.3592 1.28658 27.2832 2.19446 29.0797L29.087 2.18619C27.2979 1.27281 25.3821 0.634541 23.4031 0.29248ZM33.3651 5.12626L5.12994 33.3623C5.70952 34.0033 6.33128 34.6068 6.98881 35.1671L35.1753 6.97963C34.6123 6.32302 34.0079 5.70401 33.3651 5.12535V5.12626ZM37.0782 9.5969L9.62167 37.0534C11.2696 38.064 13.056 38.8307 14.9241 39.3287L39.3406 14.9112C38.8472 13.0395 38.0861 11.2494 37.0782 9.59598V9.5969Z" fill="#FFEE52"/>
<path d="M30.5788 30.5782C36.421 24.736 36.421 15.264 30.5788 9.42177C24.7366 3.57957 15.2645 3.57957 9.42235 9.42177C3.58015 15.264 3.58015 24.736 9.42235 30.5782C15.2645 36.4204 24.7366 36.4204 30.5788 30.5782Z" fill="#EEB80B"/>
<path d="M30.1641 30.1645C35.7778 24.5508 35.7778 15.4492 30.1641 9.83548C24.5504 4.22177 15.4488 4.22177 9.83505 9.83548C4.22134 15.4492 4.22134 24.5508 9.83505 30.1645C15.4488 35.7782 24.5504 35.7782 30.1641 30.1645Z" fill="#EABF0A"/>
<path d="M26.3396 26.8742C25.3363 27.9105 23.9066 28.5937 22.0505 28.9256V31.6851H18.5446V29.0494C17.302 28.9834 16.1117 28.7927 14.9773 28.4772C13.842 28.1627 12.9011 27.7729 12.1555 27.3089L14.0446 23.0327C14.8737 23.5141 15.8017 23.8993 16.8288 24.1891C17.8559 24.4789 18.8427 24.6237 19.7872 24.6237C20.5988 24.6237 21.1793 24.5449 21.5278 24.3871C21.8763 24.2294 22.0496 23.9937 22.0496 23.6783C22.0496 23.3142 21.8213 23.04 21.3655 22.8575C20.9097 22.675 20.1596 22.476 19.115 22.2605C17.7725 21.979 16.6537 21.6763 15.7586 21.3526C14.8636 21.0298 14.0841 20.4988 13.422 19.7615C12.7589 19.0242 12.4279 18.0256 12.4279 16.7655C12.4279 15.3074 12.9543 14.0556 14.0061 13.0111C15.0589 11.9666 16.5711 11.3045 18.5437 11.022V8.31213H22.0496V10.9725C24.0387 11.155 25.7206 11.6355 27.0971 12.4141L25.3317 16.6656C23.6242 15.8035 22.0083 15.3725 20.4833 15.3725C18.9582 15.3725 18.2209 15.7375 18.2209 16.4666C18.2209 16.815 18.4447 17.0755 18.8922 17.2497C19.3397 17.424 20.077 17.6101 21.105 17.8091C22.4311 18.0577 23.5499 18.3438 24.4614 18.6666C25.373 18.9894 26.1644 19.5158 26.8357 20.2457C27.507 20.9757 27.8426 21.9698 27.8426 23.2289C27.8426 24.621 27.341 25.8352 26.3387 26.8714L26.3396 26.8742Z" fill="#FFEE52"/>
</g>
<defs>
<clipPath id="clip0_2040_245">
<rect width="40" height="40" fill="white"/>
</clipPath>
</defs>
</svg>
