<svg width="181" height="213" viewBox="0 0 181 213" fill="none" xmlns="http://www.w3.org/2000/svg">
<g clip-path="url(#clip0_2_163)">
<path d="M179.289 33.4644C180.314 43.596 181.208 53.7495 180.962 63.9635C178.949 122.974 151.123 177.097 100.266 207.772C98.4998 208.837 93.0038 212.357 91.5503 212.802C90.3601 213.165 90.0255 212.989 88.9449 212.615C86.6412 211.819 81.0739 207.975 78.6331 206.454C19.6747 169.689 -7.03734 101.7 1.57961 33.4644C10.4544 32.8493 19.2743 33.0305 28.0942 31.7291C46.4306 29.0108 65.9463 21.0923 80.2731 9.28577C81.7212 8.08865 89.7128 -0.159416 90.6343 -0.000165726C107.194 17.2044 128.64 28.0389 152.302 31.6522C161.38 33.0415 170.194 32.7505 179.289 33.4644ZM90.2394 12.63C69.1002 32.8383 39.2836 42.1353 10.3227 42.4812L9.2367 61.2123C10.4434 95.3908 19.5266 128.855 39.311 156.856C52.6945 175.801 70.2246 190.908 90.2559 202.5C113.008 189.931 132.639 171.721 146.4 149.607C165.752 118.515 173.485 80.6464 171.056 44.1781C170.463 41.015 163.98 42.4483 161.479 42.2341C135.277 40.0211 109.684 30.4661 90.2449 12.6245L90.2394 12.63Z" fill="#958D8D"/>
<path d="M162.291 50.4823C136.144 49.8563 110.43 40.7406 90.234 24.1621C73.2579 38.9285 51.4056 46.9569 29.2132 49.8673C27.5183 50.0924 19.3292 50.2682 18.8246 50.9985C15.9285 99.3941 33.4531 148.284 71.5301 178.97C75.0021 181.765 85.3578 189.815 88.9505 191.194C90.0366 191.611 90.3657 191.748 91.5504 191.386C92.6365 191.056 98.1928 187.212 99.6134 186.251C144.464 155.857 164.956 103.974 162.296 50.4878L162.291 50.4823ZM105.68 158.723L90.4973 149.344L75.3148 158.723L79.5327 141.37L65.9299 129.816L83.7178 128.471L90.4918 111.947L97.2658 128.471L115.054 129.816L101.451 141.37L105.669 158.723H105.68ZM101.462 82.1237L105.68 99.4765L90.4973 90.0972L75.3148 99.4765L79.5327 82.1237L65.9299 70.5698L83.7178 69.2244L90.4918 52.7009L97.2658 69.2244L115.054 70.5698L101.451 82.1237H101.462Z" fill="#958D8D"/>
</g>
<defs>
<clipPath id="clip0_2_163">
<rect width="181" height="213" fill="white"/>
</clipPath>
</defs>
</svg>
