<svg width="40" height="45" viewBox="0 0 40 45" fill="none" xmlns="http://www.w3.org/2000/svg">
<g clip-path="url(#clip0_1_10)">
<path d="M39.6212 7.06935C39.8479 9.20983 40.0455 11.355 39.9909 13.5128C39.5461 25.9798 33.3968 37.4143 22.1576 43.8949C21.7673 44.12 20.5527 44.8636 20.2315 44.9576C19.9685 45.0342 19.8945 44.9971 19.6558 44.9182C19.1466 44.75 17.9163 43.9378 17.3769 43.6165C4.34741 35.8493 -1.5558 21.4854 0.3485 7.06935C2.30977 6.93942 4.25892 6.9777 6.20807 6.70274C10.2603 6.12847 14.5732 4.45553 17.7393 1.9612C18.0593 1.70829 19.8255 -0.0342623 20.0291 -0.000617855C23.6886 3.63414 28.4281 5.92312 33.6574 6.6865C35.6635 6.98002 37.6114 6.91853 39.6212 7.06935ZM19.9418 2.66773C15.2702 6.9371 8.68087 8.90123 2.28068 8.97432L2.04067 12.9316C2.30735 20.1524 4.31468 27.2224 8.68693 33.138C11.6446 37.1405 15.5187 40.3321 19.9455 42.7812C24.9735 40.1256 29.3118 36.2785 32.3531 31.6066C36.6296 25.0378 38.3387 17.0374 37.8018 9.33281C37.6708 8.66456 36.2381 8.96736 35.6853 8.92212C29.8948 8.45458 24.2389 6.43591 19.943 2.66657L19.9418 2.66773Z" fill="#FFC832"/>
<path d="M35.8653 10.6652C30.087 10.533 24.4044 8.60711 19.9412 5.10461C16.1896 8.22426 11.3603 9.92041 6.45593 10.5353C6.08138 10.5829 4.27163 10.62 4.16011 10.7743C3.52009 20.9987 7.39293 31.3275 15.8077 37.8105C16.575 38.401 18.8636 40.1018 19.6575 40.393C19.8976 40.4811 19.9703 40.5101 20.2321 40.4336C20.4721 40.364 21.7 39.5519 22.014 39.3488C31.9258 32.9274 36.4544 21.9663 35.8665 10.6664L35.8653 10.6652ZM19.6806 13.8243C20.2806 13.8243 20.7667 14.2895 20.7667 14.8638C20.7667 15.4381 20.2806 15.9033 19.6806 15.9033C19.0806 15.9033 18.5945 15.4381 18.5945 14.8638C18.5945 14.2895 19.0806 13.8243 19.6806 13.8243ZM10.0863 17.082C10.0863 16.5078 10.5724 16.0425 11.1724 16.0425C11.7725 16.0425 12.2585 16.5078 12.2585 17.082C12.2585 17.6563 11.7725 18.1215 11.1724 18.1215C10.5724 18.1215 10.0863 17.6563 10.0863 17.082ZM26.6372 24.7541H12.7264V23.6497H26.6372V24.7541ZM26.7753 23.0429H12.5882L11.2924 18.3478C11.4476 18.335 11.5955 18.2955 11.73 18.2352C11.9203 18.5682 12.13 18.8953 12.3652 19.1993C13.1301 20.1901 14.1398 20.9245 15.5423 20.9245C17.7823 20.9245 18.8636 18.5705 19.426 16.1098C19.5085 16.1249 19.5945 16.133 19.6806 16.133C19.7666 16.133 19.8527 16.1249 19.9351 16.1098C20.4976 18.5693 21.5788 20.9233 23.8189 20.9233V20.9256C25.2214 20.9256 26.2311 20.1901 26.996 19.2005C27.2311 18.8965 27.4408 18.5693 27.6311 18.2364C27.7669 18.2967 27.9136 18.335 28.0687 18.3489L26.7729 23.0441L26.7753 23.0429ZM28.1899 18.1215C27.5911 18.1215 27.1038 17.6563 27.1038 17.082C27.1038 16.5078 27.5899 16.0425 28.1899 16.0425C28.7899 16.0425 29.276 16.5078 29.276 17.082C29.276 17.6563 28.7899 18.1215 28.1899 18.1215Z" fill="#FFC832"/>
</g>
<defs>
<clipPath id="clip0_1_10">
<rect width="40" height="45" fill="white"/>
</clipPath>
</defs>
</svg>
